<?xml version="1.0" standalone="no"?>
<!DOCTYPE svg PUBLIC "-//W3C//DTD SVG 20010904//EN"
 "http://www.w3.org/TR/2001/REC-SVG-20010904/DTD/svg10.dtd">
<svg version="1.0" xmlns="http://www.w3.org/2000/svg"
 width="246.000000pt" height="246.000000pt" viewBox="0 0 246.000000 246.000000"
 preserveAspectRatio="xMidYMid meet">
<metadata>
Created by potrace 1.14, written by Peter Selinger 2001-2017
</metadata>
<g transform="translate(0.000000,246.000000) scale(0.100000,-0.100000)"
fill="#000000" stroke="none">
<path d="M1449 1881 c-164 -104 -306 -438 -260 -609 25 -90 125 -166 267 -202
108 -28 205 -26 269 4 108 51 195 160 242 301 23 70 27 97 27 215 1 115 -2
140 -17 163 -30 46 -46 45 -91 -5 -23 -24 -57 -73 -76 -107 -60 -106 -47 -99
-137 -73 -43 13 -98 32 -122 43 l-43 19 8 72 c5 40 9 102 9 138 0 78 -10 83
-76 41z"/>
<path d="M736 1581 c-3 -5 -9 -41 -12 -81 -7 -67 -9 -74 -38 -91 -17 -11 -54
-27 -83 -36 l-51 -16 -52 41 c-29 23 -59 42 -66 42 -17 0 -18 -33 -3 -80 6
-19 12 -82 13 -140 1 -92 4 -111 26 -150 14 -24 45 -58 68 -75 40 -27 51 -30
120 -29 179 1 322 118 322 262 0 68 -22 115 -83 176 -32 32 -67 77 -79 100
-21 43 -56 86 -69 86 -4 0 -10 -4 -13 -9z"/>
<path d="M1269 1053 c-73 -80 -98 -143 -109 -275 -5 -53 -15 -109 -23 -125 -8
-15 -18 -38 -21 -50 l-7 -23 135 0 c151 0 148 -2 116 69 -33 73 -22 151 21
151 12 0 47 -7 79 -15 52 -13 66 -13 129 0 39 8 77 12 84 9 17 -6 47 -67 47
-95 0 -11 -9 -37 -20 -59 -11 -22 -20 -44 -20 -50 0 -6 47 -10 130 -10 102 0
130 3 130 13 0 8 -9 49 -20 92 -11 44 -20 111 -20 154 0 63 -5 86 -29 136 -48
101 -48 101 -106 72 -66 -33 -161 -51 -228 -43 -44 6 -162 42 -227 70 -10 4
-25 -4 -41 -21z"/>
<path d="M875 993 c-110 -63 -248 -80 -328 -40 -38 20 -47 21 -52 10 -12 -32
-15 -154 -8 -268 l8 -120 54 -3 54 -3 -7 60 c-12 108 24 140 145 129 75 -8 91
-29 90 -117 l-1 -71 50 0 c28 0 50 3 51 8 12 107 10 367 -3 403 l-13 35 -40
-23z"/>
</g>
</svg>
